PathFileType	4	(X/Y/Z)	C:/Users/beibeiliu/ov580/test_trc\sequence.19_training_dense_right.trc
DataRate	CameraRate	NumFrames	NumMarkers	Units	OrigDataRate	OrigDataStartFrame	OrigNumFrames
120	120	23	19	mm	120	259	344
Frame#	Time	ThumbCMC			ThumbMCP			ThumbIP			ThumbTip			IndexMCP			IndexPIP			IndexTip			MiddleMCP			MiddlePIP			MiddleTip			RingMCP			RingPIP			RingTip			PinkyMCP			PinkyPIP			PinkyTip			BackHand1			BackHand2			BackHand3	
		X0	Y0	Z0	X1	Y1	Z1	X2	Y2	Z2	X3	Y3	Z3	X4	Y4	Z4	X5	Y5	Z5	X6	Y6	Z6	X7	Y7	Z7	X8	Y8	Z8	X9	Y9	Z9	X10	Y10	Z10	X11	Y11	Z11	X12	Y12	Z12	X13	Y13	Z13	X14	Y14	Z14	X15	Y15	Z15	X16	Y16	Z16	X17	Y17	Z17	X18	Y18	Z18	
258	2.15	224.396	29.5244	30.5186	223.486	2.50489	12.1249	232.331	-12.3691	-1.33435	244.65	-27.3491	-14.7301	256.908	3.57022	-20.9904	262.828	-18.9624	-1.53236	254.921	-4.1529	18.6818	276.235	3.4431	-10.6696	271.458	-17.8704	12.8299	258.954	5.76684	30.7199	289.106	3.83197	4.04838	276.742	-6.20033	26.5907	263.582	18.4001	35.8293	295.549	16.1915	13.3256	284.606	4.54639	34.4511	267.604	25.027	35.7653	271.515	54.1396	11.8857	264.378	66.0528	34.3512	241.539	53.9115	14.6925	
259	2.15833	223.48	28.9553	30.1844	226.13	3.131	15.9274	232.013	-13.5367	2.29502	240.756	-29.7026	-8.15796	253.904	-4.75769	-17.8393	258.323	-22.8063	2.02422	248.55	-2.76119	22.8432	276.091	-4.39052	-6.1499	268.832	-20.5077	15.9946	260.677	3.19181	34.9598	283.971	2.1669	4.89752	277.394	-8.2501	28.0147	261.188	13.5123	37.1365	297.191	8.18143	18.5814	279.657	3.40092	38.072	266.309	22.7504	39.452	275.466	50.1518	11.1799	264.619	64.855	37.2332	240.095	50.8767	17.33	
260	2.16667	221.981	28.8087	32.811	222.268	4.05488	21.5173	226.368	-16.1197	5.68145	235.197	-34.5458	-5.85724	255.874	-8.12352	-13.4158	258.757	-25.486	5.37134	247.265	-3.22888	25.0005	272.104	-4.57253	-4.21273	268.59	-24.3389	19.5583	255.717	0.97569	36.7084	281.944	-3.532	10.0257	270.507	-11.2422	33.2591	259.178	14.0975	40.4793	294.704	2.95906	22.9765	279.021	-0.258318	40.7714	266.122	21.3836	41.8039	275.356	46.4142	16.467	263.903	62.138	36.2618	245.654	48.961	14.5074	
261	2.175	224.982	31.6883	34.1795	221.055	3.19634	19.953	226.911	-16.5811	5.90049	235.82	-33.0421	-2.54582	250.93	-10.1601	-10.6044	248.433	-30.3647	7.59835	245.107	-6.69085	28.1156	267.597	-13.2692	-1.70513	264.707	-26.813	24.1243	250.955	0.722301	38.6144	280.134	-10.5841	14.1831	270.007	-15.5875	36.742	256.722	12.3308	42.3901	291.891	1.04252	23.434	276.097	-5.12909	44.398	262.572	19.3227	40.6362	277.664	40.8838	15.2833	265.234	58.1668	35.3996	246.718	46.9306	17.7809	
262	2.18333	224.864	31.624	32.3785	216.611	6.50559	26.5043	216.321	-14.5893	12.4097	224.316	-34.01	3.47451	245.298	-14.91	-7.46152	245.394	-29.8474	12.7976	242.293	-6.47	32.1021	265.489	-16.7189	3.25403	256.498	-29.414	29.378	250.012	-2.19432	41.6424	275.997	-13.4387	16.2043	260.839	-17.2073	39.7649	256.839	10.5851	47.0025	287.269	-7.70981	28.033	270.915	-10.4271	45.6416	262.372	12.6802	47.2505	281.059	36.7731	20.4879	272.808	56.4855	35.7958	251.537	45.3219	15.8943	
263	2.19167	227.351	32.3572	33.0226	215.698	7.90481	27.1704	214.997	-15.4764	14.5124	216.706	-35.1241	8.97266	239.404	-15.3939	-5.64931	232.613	-30.5128	16.462	234.706	-8.59146	34.2266	259.792	-18.9618	5.43753	248.918	-32.4046	29.06	242.667	-2.21004	43.1742	269.524	-20.1781	18.9002	257.547	-21.8792	44.3265	255.013	5.18209	50.4458	284.06	-14.6333	30.7138	265.672	-13.5663	48.4891	258.151	10.1993	49.0301	280.816	30.1244	20.4466	276.704	51.8813	37.1673	253.419	43.5384	20.8066	
264	2.2	226.917	36.5783	37.6504	215.513	10.1646	33.4296	209.876	-15.3419	21.7374	214.067	-34.5737	20.1134	234.632	-16.6152	-3.88875	224.815	-29.489	15.539	232.634	-8.63984	34.2401	252.359	-23.9866	7.73015	240.759	-33.2481	33.2937	242.764	-0.471777	44.0504	265.803	-25.0208	21.3406	247.753	-23.474	43.7285	253.551	5.41682	50.4371	276.008	-20.6606	31.2982	258.479	-17.6618	49.9061	257.258	9.77472	47.4012	284.342	22.4911	22.7641	279.983	43.1422	36.0555	257.132	40.62	20.7317	
265	2.20833	234.052	33.6827	36.5285	214.664	8.71124	35.5028	207.277	-15.8413	28.7715	213.707	-40.305	28.3352	231.597	-15.0062	-3.58103	219.023	-29.533	15.823	226.342	-5.73595	35.0503	242.646	-28.0002	7.98224	232.228	-32.8025	32.4095	242.482	-3.80296	43.2488	255.458	-28.9008	21.7592	243.583	-26.1213	47.8076	247.623	-2.20244	52.1079	269.902	-29.363	35.1472	254.41	-22.633	50.5785	258.846	5.26092	52.086	282.3	11.5817	19.158	285.674	39.5296	36.7706	260.091	37.8056	18.6944	
266	2.21667	232.956	35.9071	38.5194	215.544	11.998	40.5969	213.13	-11.8405	35.1118	222.254	-38.9081	36.1013	227.157	-10.1037	-2.18255	210.782	-25.5564	18.6317	221.549	-6.58612	36.4128	235.974	-27.7105	6.27404	224.336	-32.9799	31.3022	234.839	-4.57445	39.4291	247.055	-29.8596	18.6107	240.004	-32.7013	43.8312	245.428	-5.13534	53.541	264.337	-28.5775	29.6425	252.641	-24.6164	53.7558	253.347	3.8684	51.5578	280.62	9.64631	17.1527	286.624	29.207	32.4099	262.622	34.2066	20.9503	
267	2.225	241.595	39.2232	43.7717	216.169	17.1801	38.682	219.537	-8.05937	34.4596	234.847	-27.1728	36.3479	216.001	-4.35051	0.232545	206.685	-23.5152	17.7951	219.877	-2.10832	38.9506	227.506	-22.0692	1.29554	217.887	-33.9886	24.2908	230.658	-8.75709	36.4935	240.943	-30.9662	17.4497	229.123	-30.7427	42.5383	240.152	-6.67845	55.3924	257.665	-30.6665	29.1342	247.805	-27.8607	51.873	254.732	0.603186	53.0602	276.276	5.07198	14.1035	288.526	26.2484	29.0937	260.371	32.2144	18.3632	
268	2.23333	244.073	43.4266	46.4908	216.079	20.8012	37.2651	221.846	-1.50656	32.7698	239.75	-24.8299	31.8154	214.419	-4.94061	1.39875	198.928	-15.921	21.2339	212.812	-0.587523	41.2961	224.755	-19.6528	2.08311	210.145	-29.371	22.1917	232.57	-5.84401	33.2737	234.285	-28.8787	16.9793	224.266	-28.8963	42.5003	236.635	-8.25072	54.7166	253.733	-33.2857	28.8625	243.132	-25.1013	52.5064	255.832	-1.62386	55.7907	272.751	4.41359	14.4421	290.987	21.583	32.1868	263.567	35.7552	23.1377	
269	2.24167	251.151	40.1832	42.4762	223.58	29.4104	31.7096	221.728	3.66579	27.3482	231.067	-19.1833	29.3788	215.121	1.4318	1.21755	199.823	-14.3933	20.8639	211.119	-2.40623	42.407	224.316	-15.2374	3.12806	211.065	-26.9191	27.9408	233.415	-3.52598	33.7988	236.626	-28.4177	18.3885	222.744	-26.8169	42.2093	237.375	-5.69206	52.9984	250.707	-36.296	32.2162	241.071	-24.6207	52.636	255.796	-3.11285	53.3948	275.517	0.543547	14.8061	291.906	16.4502	29.3626	267.928	31.8281	20.7454	
270	2.25	257.654	42.886	35.4744	229.556	37.0106	24.9912	220.123	16.326	18.6674	217.768	-9.39174	19.1786	221.755	-3.35789	-0.74654	201.533	-11.8754	18.8654	209.384	0.834471	41.6921	224.063	-18.057	7.044	209.632	-20.85	32.2546	233.178	4.2988	37.517	233.033	-29.2662	24.7381	223.526	-14.9932	47.097	245.36	2.78371	47.9892	247.697	-37.2928	36.1207	238.419	-22.2584	54.5129	252.634	-1.28467	47.5337	279.528	-6.73342	21.2195	297.667	10.7053	33.4629	279.024	23.9347	19.6409	
271	2.25833	262.971	39.2621	32.7573	234.205	37.0187	21.7453	216.507	24.4677	12.8707	204.83	2.53003	8.0907	223.9	-4.16045	-1.02104	201.153	-7.75247	15.8643	213.325	7.67151	41.004	224.713	-19.2059	12.4119	209.726	-14.157	37.4528	235.428	5.23551	42.2144	232.594	-28.1284	28.3708	226.04	-11.8862	51.2612	247.608	4.65382	47.4874	242.892	-35.2264	40.0858	237.418	-14.4708	56.193	253.943	1.39377	47.6588	278.118	-14.8632	19.8909	299.758	-0.597788	39.947	281.898	17.1498	17.5552	
272	2.26667	265.265	34.176	29.6081	239.612	32.6537	19.9604	221.198	20.8062	9.81986	204.862	9.17423	6.48134	224.979	-2.43382	-2.65378	200.731	-5.71009	14.3025	208.091	11.6516	36.5085	221.063	-20.1656	17.1978	209.816	-5.08559	40.299	240.99	9.7756	39.4871	228.937	-24.3141	29.8432	225.261	-4.63882	53.2109	248.246	5.82264	47.4691	235.236	-32.1388	46.7283	235.545	-10.6025	58.9742	258.156	-0.798337	50.2826	274.878	-18.6683	25.7044	297.492	-6.62728	38.3375	283.548	7.03106	21.2107	
273	2.275	270.485	34.3068	30.589	243.35	31.0236	16.9566	223.117	22.7187	10.2947	206.31	3.4885	8.01374	224.967	-1.00953	-3.55671	198.541	2.27128	8.73322	207.133	15.164	34.4086	219.915	-15.1386	16.7725	209.387	3.11605	40.8269	238.268	11.8137	41.7659	222.273	-20.1064	34.7539	223.175	-0.687624	52.3908	250.266	6.93103	45.0635	231.357	-31.2613	47.3232	227.756	-8.11428	56.6526	251.319	1.40681	53.4209	274.405	-19.1263	27.5894	291.494	-10.1239	40.648	279.873	3.54652	19.3626	
274	2.28333	273.546	31.7136	32.5471	246.637	34.1265	18.4053	222.439	19.176	7.73569	209.085	2.53007	11.5444	220.148	4.10762	-5.4352	197.725	8.65658	8.76326	206.832	25.5639	31.9832	213.512	-6.04245	16.8183	209.316	9.11742	40.5762	240.731	15.1036	39.0514	215.425	-15.3969	35.4297	217.951	3.97137	48.7951	248.545	5.25861	48.222	225.659	-29.0595	47.2154	223.775	-5.27685	59.5378	248.399	-0.785854	56.8594	269.094	-22.1619	27.2939	292.985	-16.1702	45.3515	278.84	0.236329	21.9377	
275	2.29167	273.127	28.8003	31.1936	245.106	35.004	15.1819	226.573	20.1651	9.89832	206.844	7.67126	9.16303	223.345	4.89892	-4.09162	197.311	17.0774	7.04928	210.998	31.1889	32.4951	212.762	-5.17808	16.9513	207.871	14.5347	38.6014	237.267	14.518	41.0652	215.674	-14.631	31.9587	215.889	5.56203	51.4805	242.335	8.26502	48.6874	216.943	-22.5268	45.4967	219.061	-0.995468	55.2229	243.142	2.35539	57.3866	260.113	-26.0705	29.7565	287.446	-17.2388	43.1791	278.027	-2.21852	24.0982	
276	2.3	275.589	28.0408	34.3566	248.175	38.0656	16.7763	225.604	29.6061	7.83455	205.337	13.7794	7.78141	223.933	9.7651	-5.95847	198.18	19.6179	5.62676	211.68	35.2753	31.5805	214.173	1.29004	11.9382	205.244	18.1876	36.7498	234.296	15.984	42.9503	209.371	-6.06101	29.8018	214.561	12.2389	48.6027	238.825	9.55845	50.2534	214.482	-16.9724	39.9524	215.955	2.85501	53.5335	240.907	4.46247	58.2437	256.895	-23.2926	27.9764	282.38	-21.5992	47.3105	275.188	-3.96864	23.1637	
277	2.30833	272.446	24.4943	31.5898	250.45	35.4688	17.0963	226.545	30.9514	6.87003	209.492	20.8562	9.0786	220.635	14.0847	-6.67051	199.892	28.6561	3.00888	212.624	35.9488	32.8315	211.06	3.70582	10.6917	201.076	21.7253	31.7336	235.044	16.7541	41.0314	208.105	-1.40365	27.0266	209.378	13.1457	47.0259	240.219	11.7909	46.3891	212.297	-15.6308	40.5277	214.606	4.5354	57.0364	239.858	4.95481	54.4681	253.937	-24.1404	27.8829	280.084	-22.8371	44.5794	276.057	-1.87566	20.2262	
278	2.31667	274.168	26.8802	30.5045	251.349	36.7909	15.3639	229.4	37.0179	4.87813	206.691	26.7821	3.97676	221.624	19.3972	-9.22131	200.779	34.1471	4.63584	212.341	38.7729	29.243	208.09	6.68194	10.5343	200.096	27.2564	28.1531	230.941	25.189	40.7815	206.153	2.79322	24.9053	209.572	18.759	44.5194	236.74	12.5746	47.2656	209	-12.6313	38.7577	210.449	6.99653	55.1888	240.866	6.47022	55.1463	249.964	-23.0839	26.999	275.106	-26.6334	45.5628	273.506	-2.36569	20.3668	
279	2.325	274.052	24.7369	30.6024	253.817	41.3305	16.6926	236.062	48.7557	3.09806	214.805	46.7358	-3.6417	218.914	19.2164	-7.88273	203	36.6312	7.59885	220.919	42.9295	28.0406	207.968	9.83477	7.81337	201.246	30.9404	29.2847	229.194	28.0586	40.6053	204.795	4.55623	22.2755	208.636	22.3561	42.1842	234.398	15.9813	47.3101	204.687	-9.95722	39.9001	210.627	10.6707	53.0559	239.047	10.1683	51.2453	248.217	-25.7674	29.3792	270.967	-24.6911	41.6978	271.297	-6.68998	20.0438	
280	2.33333	274.078	25.4475	30.5052	255.598	41.3094	16.8783	235.377	48.602	-0.480849	219.169	56.461	-10.324	220.237	22.9127	-9.4305	207.163	43.8141	7.75112	229.554	39.613	26.9579	204.626	17.2318	4.42891	200.541	33.736	24.7488	231.667	28.0442	38.9612	203.578	11.4205	19.09	208.111	27.2454	36.4589	234.783	15.4259	45.1293	203.331	-4.87409	32.6301	210.498	15.4428	49.735	237.467	9.78337	47.068	242.285	-21.9683	22.2611	264.348	-25.7616	41.0801	266.495	-4.59803	17.5257	
